<mxfile host="app.diagrams.net" modified="2021-11-21T17:46:49.614Z" agent="5.0 (Windows NT 10.0; WOW64) AppleWebKit/537.36 (KHTML, like Gecko) Chrome/96.0.4664.45 Safari/537.36" etag="Ew-itALM3GS-G6B5Imt-" version="15.8.3" type="github">
  <diagram name="Page-1" id="929967ad-93f9-6ef4-fab6-5d389245f69c">
    <mxGraphModel dx="2566.5" dy="403" grid="1" gridSize="10" guides="1" tooltips="1" connect="1" arrows="1" fold="1" page="1" pageScale="1.5" pageWidth="1169" pageHeight="826" background="none" math="0" shadow="0">
      <root>
        <mxCell id="0" style=";html=1;" />
        <mxCell id="1" style=";html=1;" parent="0" />
        <mxCell id="ii08JX7uw0dO-d4jB14v-2" value="Usuário" style="swimlane;whiteSpace=wrap" vertex="1" parent="1">
          <mxGeometry x="-1650" y="110" width="300" height="1090" as="geometry" />
        </mxCell>
        <mxCell id="ii08JX7uw0dO-d4jB14v-3" value="c" style="ellipse;shape=startState;fillColor=#000000;strokeColor=#ff0000;" vertex="1" parent="ii08JX7uw0dO-d4jB14v-2">
          <mxGeometry x="60" y="40" width="30" height="30" as="geometry" />
        </mxCell>
        <mxCell id="ii08JX7uw0dO-d4jB14v-4" value="" style="edgeStyle=elbowEdgeStyle;elbow=horizontal;verticalAlign=bottom;endArrow=open;endSize=8;strokeColor=#FF0000;endFill=1;rounded=0" edge="1" parent="ii08JX7uw0dO-d4jB14v-2" source="ii08JX7uw0dO-d4jB14v-3" target="ii08JX7uw0dO-d4jB14v-12">
          <mxGeometry x="100" y="40" as="geometry">
            <mxPoint x="115.5" y="110" as="targetPoint" />
          </mxGeometry>
        </mxCell>
        <mxCell id="ii08JX7uw0dO-d4jB14v-12" value="Escolhe a temperatura externa" style="html=1;shape=mxgraph.sysml.objFlowR;whiteSpace=wrap;" vertex="1" parent="ii08JX7uw0dO-d4jB14v-2">
          <mxGeometry x="20" y="95" width="155" height="60" as="geometry" />
        </mxCell>
        <mxCell id="ii08JX7uw0dO-d4jB14v-63" value="" style="shape=rect;html=1;fillColor=#000000;verticalLabelPosition=bottom;verticalAlignment=top;" vertex="1" parent="ii08JX7uw0dO-d4jB14v-2">
          <mxGeometry x="190" y="295" width="4" height="50" as="geometry" />
        </mxCell>
        <mxCell id="ii08JX7uw0dO-d4jB14v-78" value="" style="shape=rect;html=1;fillColor=#000000;verticalLabelPosition=bottom;verticalAlignment=top;" vertex="1" parent="ii08JX7uw0dO-d4jB14v-2">
          <mxGeometry x="240" y="400" width="4" height="50" as="geometry" />
        </mxCell>
        <mxCell id="ii08JX7uw0dO-d4jB14v-85" value="" style="shape=rect;html=1;fillColor=#000000;verticalLabelPosition=bottom;verticalAlignment=top;" vertex="1" parent="ii08JX7uw0dO-d4jB14v-2">
          <mxGeometry x="210" y="470" width="4" height="50" as="geometry" />
        </mxCell>
        <mxCell id="ii08JX7uw0dO-d4jB14v-147" value="Escolhe direção do ar" style="html=1;shape=mxgraph.sysml.objFlowR;whiteSpace=wrap;" vertex="1" parent="ii08JX7uw0dO-d4jB14v-2">
          <mxGeometry x="30" y="860" width="190" height="50" as="geometry" />
        </mxCell>
        <mxCell id="ii08JX7uw0dO-d4jB14v-152" value="Escolhe a umidade" style="html=1;shape=mxgraph.sysml.objFlowR;whiteSpace=wrap;" vertex="1" parent="ii08JX7uw0dO-d4jB14v-2">
          <mxGeometry x="20" y="170" width="155" height="60" as="geometry" />
        </mxCell>
        <mxCell id="ii08JX7uw0dO-d4jB14v-17" value="Liga o veículo" style="shape=rect;html=1;rounded=1;whiteSpace=wrap;align=center;" vertex="1" parent="ii08JX7uw0dO-d4jB14v-2">
          <mxGeometry x="10" y="250" width="150" height="60" as="geometry" />
        </mxCell>
        <mxCell id="ii08JX7uw0dO-d4jB14v-159" value="Desliga o veículo" style="shape=rect;html=1;rounded=1;whiteSpace=wrap;align=center;" vertex="1" parent="ii08JX7uw0dO-d4jB14v-2">
          <mxGeometry x="50" y="1020" width="140" height="50" as="geometry" />
        </mxCell>
        <mxCell id="ii08JX7uw0dO-d4jB14v-5" value="Ar condicionado" style="swimlane;whiteSpace=wrap" vertex="1" parent="1">
          <mxGeometry x="-1350" y="110" width="640" height="1090" as="geometry" />
        </mxCell>
        <mxCell id="ii08JX7uw0dO-d4jB14v-104" style="edgeStyle=orthogonalEdgeStyle;rounded=0;orthogonalLoop=1;jettySize=auto;html=1;exitX=1;exitY=0.5;exitDx=0;exitDy=0;exitPerimeter=0;entryX=0;entryY=0.5;entryDx=0;entryDy=0;endArrow=classic;endFill=1;strokeWidth=1;" edge="1" parent="ii08JX7uw0dO-d4jB14v-5" source="ii08JX7uw0dO-d4jB14v-23" target="ii08JX7uw0dO-d4jB14v-101">
          <mxGeometry relative="1" as="geometry" />
        </mxCell>
        <mxCell id="ii08JX7uw0dO-d4jB14v-23" value="Lê a temperatura" style="html=1;shape=mxgraph.sysml.objFlowR;whiteSpace=wrap;" vertex="1" parent="ii08JX7uw0dO-d4jB14v-5">
          <mxGeometry x="30" y="260" width="90" height="50" as="geometry" />
        </mxCell>
        <mxCell id="ii08JX7uw0dO-d4jB14v-144" style="edgeStyle=orthogonalEdgeStyle;rounded=0;orthogonalLoop=1;jettySize=auto;html=1;entryX=0;entryY=0.5;entryDx=0;entryDy=0;endArrow=classic;endFill=1;strokeWidth=1;" edge="1" parent="ii08JX7uw0dO-d4jB14v-5" source="ii08JX7uw0dO-d4jB14v-22" target="ii08JX7uw0dO-d4jB14v-143">
          <mxGeometry relative="1" as="geometry" />
        </mxCell>
        <mxCell id="ii08JX7uw0dO-d4jB14v-22" value="Lê a&lt;br&gt;&amp;nbsp;umidadade" style="html=1;shape=mxgraph.sysml.objFlowR;whiteSpace=wrap;" vertex="1" parent="ii08JX7uw0dO-d4jB14v-5">
          <mxGeometry x="30" y="320" width="90" height="40" as="geometry" />
        </mxCell>
        <mxCell id="ii08JX7uw0dO-d4jB14v-90" value="Ativa ventilador" style="shape=rect;html=1;rounded=1;whiteSpace=wrap;align=center;" vertex="1" parent="ii08JX7uw0dO-d4jB14v-5">
          <mxGeometry x="250" y="760" width="160" height="50" as="geometry" />
        </mxCell>
        <mxCell id="ii08JX7uw0dO-d4jB14v-123" style="edgeStyle=orthogonalEdgeStyle;rounded=0;orthogonalLoop=1;jettySize=auto;html=1;exitX=0;exitY=0.5;exitDx=0;exitDy=0;endArrow=classic;endFill=1;strokeWidth=1;" edge="1" parent="ii08JX7uw0dO-d4jB14v-5" source="ii08JX7uw0dO-d4jB14v-100" target="ii08JX7uw0dO-d4jB14v-119">
          <mxGeometry relative="1" as="geometry" />
        </mxCell>
        <mxCell id="ii08JX7uw0dO-d4jB14v-100" value="" style="shape=rect;html=1;fillColor=#000000;verticalLabelPosition=bottom;verticalAlignment=top;direction=north;" vertex="1" parent="ii08JX7uw0dO-d4jB14v-5">
          <mxGeometry x="280" y="560" width="50" height="4" as="geometry" />
        </mxCell>
        <mxCell id="ii08JX7uw0dO-d4jB14v-89" value="Liga compressor" style="shape=rect;html=1;rounded=1;whiteSpace=wrap;align=center;" vertex="1" parent="ii08JX7uw0dO-d4jB14v-5">
          <mxGeometry x="470" y="615" width="160" height="50" as="geometry" />
        </mxCell>
        <mxCell id="ii08JX7uw0dO-d4jB14v-112" style="edgeStyle=orthogonalEdgeStyle;rounded=0;orthogonalLoop=1;jettySize=auto;html=1;exitX=0;exitY=0.75;exitDx=0;exitDy=0;entryX=1;entryY=0.75;entryDx=0;entryDy=0;endArrow=classic;endFill=1;strokeWidth=1;" edge="1" parent="ii08JX7uw0dO-d4jB14v-5" source="ii08JX7uw0dO-d4jB14v-101" target="ii08JX7uw0dO-d4jB14v-100">
          <mxGeometry relative="1" as="geometry">
            <Array as="points">
              <mxPoint x="190" y="285" />
              <mxPoint x="318" y="285" />
            </Array>
          </mxGeometry>
        </mxCell>
        <mxCell id="ii08JX7uw0dO-d4jB14v-142" style="edgeStyle=orthogonalEdgeStyle;rounded=0;orthogonalLoop=1;jettySize=auto;html=1;exitX=1;exitY=0.75;exitDx=0;exitDy=0;entryX=0;entryY=0.25;entryDx=0;entryDy=0;endArrow=classic;endFill=1;strokeWidth=1;" edge="1" parent="ii08JX7uw0dO-d4jB14v-5" source="ii08JX7uw0dO-d4jB14v-101" target="ii08JX7uw0dO-d4jB14v-136">
          <mxGeometry relative="1" as="geometry">
            <Array as="points">
              <mxPoint x="240" y="298" />
              <mxPoint x="240" y="380" />
              <mxPoint x="60" y="380" />
              <mxPoint x="60" y="773" />
            </Array>
          </mxGeometry>
        </mxCell>
        <mxCell id="ii08JX7uw0dO-d4jB14v-101" value="" style="shape=rect;html=1;fillColor=#000000;verticalLabelPosition=bottom;verticalAlignment=top;" vertex="1" parent="ii08JX7uw0dO-d4jB14v-5">
          <mxGeometry x="190" y="260" width="4" height="50" as="geometry" />
        </mxCell>
        <mxCell id="ii08JX7uw0dO-d4jB14v-113" value="Ativa recirculação" style="shape=rect;html=1;rounded=1;whiteSpace=wrap;align=center;" vertex="1" parent="ii08JX7uw0dO-d4jB14v-5">
          <mxGeometry x="470" y="810" width="150" height="50" as="geometry" />
        </mxCell>
        <mxCell id="ii08JX7uw0dO-d4jB14v-124" style="edgeStyle=orthogonalEdgeStyle;rounded=0;orthogonalLoop=1;jettySize=auto;html=1;exitX=1;exitY=0.5;exitDx=0;exitDy=0;entryX=0;entryY=0.5;entryDx=0;entryDy=0;entryPerimeter=0;endArrow=classic;endFill=1;strokeWidth=1;" edge="1" parent="ii08JX7uw0dO-d4jB14v-5" source="ii08JX7uw0dO-d4jB14v-119" target="ii08JX7uw0dO-d4jB14v-89">
          <mxGeometry relative="1" as="geometry">
            <Array as="points">
              <mxPoint x="430" y="640" />
            </Array>
          </mxGeometry>
        </mxCell>
        <mxCell id="ii08JX7uw0dO-d4jB14v-125" value="Sim" style="edgeLabel;html=1;align=center;verticalAlign=middle;resizable=0;points=[];" vertex="1" connectable="0" parent="ii08JX7uw0dO-d4jB14v-124">
          <mxGeometry x="-0.2038" y="-4" relative="1" as="geometry">
            <mxPoint x="-42" y="-4" as="offset" />
          </mxGeometry>
        </mxCell>
        <mxCell id="ii08JX7uw0dO-d4jB14v-134" style="edgeStyle=orthogonalEdgeStyle;rounded=0;orthogonalLoop=1;jettySize=auto;html=1;exitX=0;exitY=0.5;exitDx=0;exitDy=0;entryX=1;entryY=0.5;entryDx=0;entryDy=0;entryPerimeter=0;endArrow=classic;endFill=1;strokeWidth=1;" edge="1" parent="ii08JX7uw0dO-d4jB14v-5" source="ii08JX7uw0dO-d4jB14v-119" target="ii08JX7uw0dO-d4jB14v-132">
          <mxGeometry relative="1" as="geometry" />
        </mxCell>
        <mxCell id="ii08JX7uw0dO-d4jB14v-135" value="Não" style="edgeLabel;html=1;align=center;verticalAlign=middle;resizable=0;points=[];" vertex="1" connectable="0" parent="ii08JX7uw0dO-d4jB14v-134">
          <mxGeometry x="-0.1905" relative="1" as="geometry">
            <mxPoint as="offset" />
          </mxGeometry>
        </mxCell>
        <mxCell id="ii08JX7uw0dO-d4jB14v-119" value="" style="shape=rhombus;html=1;verticalLabelPosition=bottom;verticalAlignment=top;strokeWidth=0;fillColor=#000000;" vertex="1" parent="ii08JX7uw0dO-d4jB14v-5">
          <mxGeometry x="270" y="620" width="40" height="40" as="geometry" />
        </mxCell>
        <mxCell id="ii08JX7uw0dO-d4jB14v-129" value="Temperatura no veículo &amp;gt; Temperatura Ideal" style="text;html=1;strokeColor=none;fillColor=none;align=center;verticalAlign=middle;whiteSpace=wrap;rounded=0;" vertex="1" parent="ii08JX7uw0dO-d4jB14v-5">
          <mxGeometry x="230" y="665" width="240" height="30" as="geometry" />
        </mxCell>
        <mxCell id="ii08JX7uw0dO-d4jB14v-132" value="Desliga compressor" style="shape=rect;html=1;rounded=1;whiteSpace=wrap;align=center;" vertex="1" parent="ii08JX7uw0dO-d4jB14v-5">
          <mxGeometry x="70" y="615" width="140" height="50" as="geometry" />
        </mxCell>
        <mxCell id="ii08JX7uw0dO-d4jB14v-139" style="edgeStyle=orthogonalEdgeStyle;rounded=0;orthogonalLoop=1;jettySize=auto;html=1;entryX=0;entryY=0.5;entryDx=0;entryDy=0;endArrow=classic;endFill=1;strokeWidth=1;" edge="1" parent="ii08JX7uw0dO-d4jB14v-5" source="ii08JX7uw0dO-d4jB14v-136" target="ii08JX7uw0dO-d4jB14v-90">
          <mxGeometry relative="1" as="geometry" />
        </mxCell>
        <mxCell id="ii08JX7uw0dO-d4jB14v-136" value="" style="shape=rect;html=1;fillColor=#000000;verticalLabelPosition=bottom;verticalAlignment=top;" vertex="1" parent="ii08JX7uw0dO-d4jB14v-5">
          <mxGeometry x="226" y="760" width="4" height="50" as="geometry" />
        </mxCell>
        <mxCell id="ii08JX7uw0dO-d4jB14v-146" style="edgeStyle=orthogonalEdgeStyle;rounded=0;orthogonalLoop=1;jettySize=auto;html=1;exitX=1;exitY=0.75;exitDx=0;exitDy=0;entryX=0;entryY=0.5;entryDx=0;entryDy=0;endArrow=classic;endFill=1;strokeWidth=1;" edge="1" parent="ii08JX7uw0dO-d4jB14v-5" source="ii08JX7uw0dO-d4jB14v-143" target="ii08JX7uw0dO-d4jB14v-113">
          <mxGeometry relative="1" as="geometry">
            <Array as="points">
              <mxPoint x="450" y="353" />
            </Array>
          </mxGeometry>
        </mxCell>
        <mxCell id="ii08JX7uw0dO-d4jB14v-143" value="" style="shape=rect;html=1;fillColor=#000000;verticalLabelPosition=bottom;verticalAlignment=top;" vertex="1" parent="ii08JX7uw0dO-d4jB14v-5">
          <mxGeometry x="200" y="315" width="4" height="50" as="geometry" />
        </mxCell>
        <mxCell id="ii08JX7uw0dO-d4jB14v-149" value="Aciona direcionadores de ar" style="html=1;shape=mxgraph.sysml.objFlowL;whiteSpace=wrap;" vertex="1" parent="ii08JX7uw0dO-d4jB14v-5">
          <mxGeometry x="195" y="860" width="190" height="50" as="geometry" />
        </mxCell>
        <mxCell id="ii08JX7uw0dO-d4jB14v-19" style="edgeStyle=orthogonalEdgeStyle;rounded=0;orthogonalLoop=1;jettySize=auto;html=1;entryX=0;entryY=0.5;entryDx=0;entryDy=0;exitX=1;exitY=0.5;exitDx=0;exitDy=0;" edge="1" parent="1" source="ii08JX7uw0dO-d4jB14v-17" target="ii08JX7uw0dO-d4jB14v-18">
          <mxGeometry relative="1" as="geometry">
            <Array as="points">
              <mxPoint x="-1480" y="360" />
            </Array>
          </mxGeometry>
        </mxCell>
        <mxCell id="ii08JX7uw0dO-d4jB14v-76" style="edgeStyle=orthogonalEdgeStyle;rounded=0;orthogonalLoop=1;jettySize=auto;html=1;exitX=1;exitY=0.5;exitDx=0;exitDy=0;entryX=0;entryY=0.5;entryDx=0;entryDy=0;endArrow=classic;endFill=1;strokeWidth=1;" edge="1" parent="1" source="ii08JX7uw0dO-d4jB14v-20" target="ii08JX7uw0dO-d4jB14v-63">
          <mxGeometry relative="1" as="geometry" />
        </mxCell>
        <mxCell id="ii08JX7uw0dO-d4jB14v-20" value="Liga o Ar condicionado" style="shape=rect;html=1;rounded=1;whiteSpace=wrap;align=center;" vertex="1" parent="1">
          <mxGeometry x="-1640" y="430" width="150" height="60" as="geometry" />
        </mxCell>
        <mxCell id="ii08JX7uw0dO-d4jB14v-66" style="edgeStyle=orthogonalEdgeStyle;rounded=0;orthogonalLoop=1;jettySize=auto;html=1;exitX=1;exitY=0.25;exitDx=0;exitDy=0;endArrow=classic;endFill=1;strokeWidth=1;" edge="1" parent="1" source="ii08JX7uw0dO-d4jB14v-63" target="ii08JX7uw0dO-d4jB14v-23">
          <mxGeometry relative="1" as="geometry" />
        </mxCell>
        <mxCell id="ii08JX7uw0dO-d4jB14v-68" style="edgeStyle=orthogonalEdgeStyle;rounded=0;orthogonalLoop=1;jettySize=auto;html=1;endArrow=classic;endFill=1;strokeWidth=1;" edge="1" parent="1" source="ii08JX7uw0dO-d4jB14v-63" target="ii08JX7uw0dO-d4jB14v-22">
          <mxGeometry relative="1" as="geometry">
            <mxPoint x="-1280" y="470" as="targetPoint" />
          </mxGeometry>
        </mxCell>
        <mxCell id="ii08JX7uw0dO-d4jB14v-79" style="edgeStyle=orthogonalEdgeStyle;rounded=0;orthogonalLoop=1;jettySize=auto;html=1;exitX=1;exitY=0.5;exitDx=0;exitDy=0;endArrow=classic;endFill=1;strokeWidth=1;" edge="1" parent="1" source="ii08JX7uw0dO-d4jB14v-77" target="ii08JX7uw0dO-d4jB14v-78">
          <mxGeometry relative="1" as="geometry" />
        </mxCell>
        <mxCell id="ii08JX7uw0dO-d4jB14v-77" value="Escolhe a temperatura ideal" style="shape=rect;html=1;rounded=1;whiteSpace=wrap;align=center;" vertex="1" parent="1">
          <mxGeometry x="-1640" y="540" width="150" height="50" as="geometry" />
        </mxCell>
        <mxCell id="ii08JX7uw0dO-d4jB14v-83" style="edgeStyle=orthogonalEdgeStyle;rounded=0;orthogonalLoop=1;jettySize=auto;html=1;exitX=1;exitY=0.25;exitDx=0;exitDy=0;entryX=0;entryY=0.5;entryDx=0;entryDy=0;endArrow=classic;endFill=1;strokeWidth=1;" edge="1" parent="1" source="ii08JX7uw0dO-d4jB14v-78" target="ii08JX7uw0dO-d4jB14v-82">
          <mxGeometry relative="1" as="geometry">
            <Array as="points">
              <mxPoint x="-1406" y="553" />
              <mxPoint x="-1060" y="553" />
              <mxPoint x="-1060" y="510" />
              <mxPoint x="-600" y="510" />
              <mxPoint x="-600" y="505" />
            </Array>
          </mxGeometry>
        </mxCell>
        <mxCell id="ii08JX7uw0dO-d4jB14v-86" value="" style="edgeStyle=orthogonalEdgeStyle;rounded=0;orthogonalLoop=1;jettySize=auto;html=1;endArrow=classic;endFill=1;strokeWidth=1;" edge="1" parent="1" source="ii08JX7uw0dO-d4jB14v-84" target="ii08JX7uw0dO-d4jB14v-85">
          <mxGeometry relative="1" as="geometry" />
        </mxCell>
        <mxCell id="ii08JX7uw0dO-d4jB14v-84" value="Escolhe a velocidade do ventilador" style="html=1;shape=mxgraph.sysml.objFlowR;whiteSpace=wrap;" vertex="1" parent="1">
          <mxGeometry x="-1640" y="610" width="150" height="50" as="geometry" />
        </mxCell>
        <mxCell id="ii08JX7uw0dO-d4jB14v-88" style="edgeStyle=orthogonalEdgeStyle;rounded=0;orthogonalLoop=1;jettySize=auto;html=1;entryX=0;entryY=0.5;entryDx=0;entryDy=0;endArrow=classic;endFill=1;strokeWidth=1;" edge="1" parent="1" source="ii08JX7uw0dO-d4jB14v-85" target="ii08JX7uw0dO-d4jB14v-87">
          <mxGeometry relative="1" as="geometry">
            <Array as="points">
              <mxPoint x="-670" y="605" />
            </Array>
          </mxGeometry>
        </mxCell>
        <mxCell id="ii08JX7uw0dO-d4jB14v-105" style="edgeStyle=orthogonalEdgeStyle;rounded=0;orthogonalLoop=1;jettySize=auto;html=1;exitX=1;exitY=0.25;exitDx=0;exitDy=0;endArrow=classic;endFill=1;strokeWidth=1;entryX=0;entryY=0.5;entryDx=0;entryDy=0;entryPerimeter=0;" edge="1" parent="1" source="ii08JX7uw0dO-d4jB14v-101" target="ii08JX7uw0dO-d4jB14v-69">
          <mxGeometry relative="1" as="geometry">
            <Array as="points">
              <mxPoint x="-1156" y="395" />
            </Array>
          </mxGeometry>
        </mxCell>
        <mxCell id="ii08JX7uw0dO-d4jB14v-7" value="Interface do com a simulação" style="swimlane;whiteSpace=wrap" vertex="1" parent="1">
          <mxGeometry x="-410" y="110" width="350" height="1090" as="geometry" />
        </mxCell>
        <mxCell id="ii08JX7uw0dO-d4jB14v-13" value="Exibe a temperatura externa" style="html=1;shape=mxgraph.sysml.objFlowL;whiteSpace=wrap;" vertex="1" parent="ii08JX7uw0dO-d4jB14v-7">
          <mxGeometry x="160" y="90" width="140" height="65" as="geometry" />
        </mxCell>
        <mxCell id="ii08JX7uw0dO-d4jB14v-71" value="Exibe a umidade dentro do veículo" style="html=1;shape=mxgraph.sysml.objFlowL;whiteSpace=wrap;" vertex="1" parent="ii08JX7uw0dO-d4jB14v-7">
          <mxGeometry x="140" y="320" width="160" height="50" as="geometry" />
        </mxCell>
        <mxCell id="ii08JX7uw0dO-d4jB14v-6" value="Interface do ar condicionado" style="swimlane;whiteSpace=wrap" vertex="1" parent="ii08JX7uw0dO-d4jB14v-7">
          <mxGeometry x="-300" width="300" height="1090" as="geometry" />
        </mxCell>
        <mxCell id="ii08JX7uw0dO-d4jB14v-18" value="Exibe a tela do ar condicionado" style="shape=rect;html=1;rounded=1;whiteSpace=wrap;align=center;" vertex="1" parent="ii08JX7uw0dO-d4jB14v-6">
          <mxGeometry x="50" y="225" width="160" height="50" as="geometry" />
        </mxCell>
        <mxCell id="ii08JX7uw0dO-d4jB14v-87" value="Exibe a velocidade do ventilador" style="shape=rect;html=1;rounded=1;whiteSpace=wrap;align=center;" vertex="1" parent="ii08JX7uw0dO-d4jB14v-6">
          <mxGeometry x="70" y="470" width="160" height="50" as="geometry" />
        </mxCell>
        <mxCell id="ii08JX7uw0dO-d4jB14v-82" value="Exibe a temperatura escolhida" style="shape=rect;html=1;rounded=1;whiteSpace=wrap;align=center;" vertex="1" parent="ii08JX7uw0dO-d4jB14v-6">
          <mxGeometry x="130" y="370" width="160" height="50" as="geometry" />
        </mxCell>
        <mxCell id="ii08JX7uw0dO-d4jB14v-127" value="" style="html=1;shape=mxgraph.sysml.actFinal;strokeWidth=2;verticalLabelPosition=bottom;verticalAlignment=top;" vertex="1" parent="ii08JX7uw0dO-d4jB14v-6">
          <mxGeometry x="160" y="1030" width="40" height="40" as="geometry" />
        </mxCell>
        <mxCell id="ii08JX7uw0dO-d4jB14v-69" value="Exibe a temperatura dentro do veículo" style="html=1;shape=mxgraph.sysml.objFlowL;whiteSpace=wrap;" vertex="1" parent="ii08JX7uw0dO-d4jB14v-7">
          <mxGeometry x="130" y="260" width="160" height="50" as="geometry" />
        </mxCell>
        <mxCell id="ii08JX7uw0dO-d4jB14v-153" value="Exibe a umidade" style="html=1;shape=mxgraph.sysml.objFlowL;whiteSpace=wrap;" vertex="1" parent="ii08JX7uw0dO-d4jB14v-7">
          <mxGeometry x="160" y="167.5" width="140" height="65" as="geometry" />
        </mxCell>
        <mxCell id="ii08JX7uw0dO-d4jB14v-114" style="edgeStyle=orthogonalEdgeStyle;rounded=0;orthogonalLoop=1;jettySize=auto;html=1;entryX=1;entryY=0.25;entryDx=0;entryDy=0;endArrow=classic;endFill=1;strokeWidth=1;" edge="1" parent="1" source="ii08JX7uw0dO-d4jB14v-78" target="ii08JX7uw0dO-d4jB14v-100">
          <mxGeometry relative="1" as="geometry">
            <Array as="points">
              <mxPoint x="-1057" y="580" />
            </Array>
          </mxGeometry>
        </mxCell>
        <mxCell id="ii08JX7uw0dO-d4jB14v-140" style="edgeStyle=orthogonalEdgeStyle;rounded=0;orthogonalLoop=1;jettySize=auto;html=1;exitX=1;exitY=0.75;exitDx=0;exitDy=0;endArrow=classic;endFill=1;strokeWidth=1;" edge="1" parent="1" source="ii08JX7uw0dO-d4jB14v-85">
          <mxGeometry relative="1" as="geometry">
            <mxPoint x="-1122" y="902" as="targetPoint" />
            <Array as="points">
              <mxPoint x="-1436" y="648" />
              <mxPoint x="-1320" y="648" />
              <mxPoint x="-1320" y="902" />
            </Array>
          </mxGeometry>
        </mxCell>
        <mxCell id="ii08JX7uw0dO-d4jB14v-145" style="edgeStyle=orthogonalEdgeStyle;rounded=0;orthogonalLoop=1;jettySize=auto;html=1;endArrow=classic;endFill=1;strokeWidth=1;" edge="1" parent="1" source="ii08JX7uw0dO-d4jB14v-143" target="ii08JX7uw0dO-d4jB14v-71">
          <mxGeometry relative="1" as="geometry" />
        </mxCell>
        <mxCell id="ii08JX7uw0dO-d4jB14v-150" style="edgeStyle=orthogonalEdgeStyle;rounded=0;orthogonalLoop=1;jettySize=auto;html=1;exitX=1;exitY=0.5;exitDx=0;exitDy=0;exitPerimeter=0;entryX=0;entryY=0.5;entryDx=0;entryDy=0;entryPerimeter=0;endArrow=classic;endFill=1;strokeWidth=1;" edge="1" parent="1" source="ii08JX7uw0dO-d4jB14v-147" target="ii08JX7uw0dO-d4jB14v-149">
          <mxGeometry relative="1" as="geometry" />
        </mxCell>
        <mxCell id="ii08JX7uw0dO-d4jB14v-14" style="edgeStyle=orthogonalEdgeStyle;rounded=0;orthogonalLoop=1;jettySize=auto;html=1;exitX=1;exitY=0.5;exitDx=0;exitDy=0;exitPerimeter=0;" edge="1" parent="1" source="ii08JX7uw0dO-d4jB14v-12">
          <mxGeometry relative="1" as="geometry">
            <mxPoint x="-1440" y="275" as="sourcePoint" />
            <mxPoint x="-250" y="235" as="targetPoint" />
            <Array as="points">
              <mxPoint x="-300" y="235" />
              <mxPoint x="-300" y="235" />
            </Array>
          </mxGeometry>
        </mxCell>
        <mxCell id="ii08JX7uw0dO-d4jB14v-15" value="Temperatura&amp;nbsp;&lt;br&gt;Externa" style="edgeLabel;html=1;align=center;verticalAlign=middle;resizable=0;points=[];" vertex="1" connectable="0" parent="ii08JX7uw0dO-d4jB14v-14">
          <mxGeometry x="-0.9046" y="2" relative="1" as="geometry">
            <mxPoint x="17" y="2" as="offset" />
          </mxGeometry>
        </mxCell>
        <mxCell id="ii08JX7uw0dO-d4jB14v-156" style="edgeStyle=orthogonalEdgeStyle;rounded=0;orthogonalLoop=1;jettySize=auto;html=1;exitX=1;exitY=0;exitDx=0;exitDy=0;entryX=0.994;entryY=0.009;entryDx=0;entryDy=0;entryPerimeter=0;endArrow=classic;endFill=1;strokeWidth=1;" edge="1" parent="1" source="ii08JX7uw0dO-d4jB14v-2" target="ii08JX7uw0dO-d4jB14v-2">
          <mxGeometry relative="1" as="geometry" />
        </mxCell>
        <mxCell id="ii08JX7uw0dO-d4jB14v-154" value="u" style="edgeStyle=orthogonalEdgeStyle;rounded=0;orthogonalLoop=1;jettySize=auto;html=1;exitX=1;exitY=0.5;exitDx=0;exitDy=0;exitPerimeter=0;entryX=0;entryY=0.5;entryDx=0;entryDy=0;entryPerimeter=0;" edge="1" parent="1" source="ii08JX7uw0dO-d4jB14v-152" target="ii08JX7uw0dO-d4jB14v-153">
          <mxGeometry relative="1" as="geometry">
            <mxPoint x="-1440" y="305" as="sourcePoint" />
            <mxPoint x="-230" y="327.5" as="targetPoint" />
            <Array as="points">
              <mxPoint x="-250" y="310" />
            </Array>
          </mxGeometry>
        </mxCell>
        <mxCell id="ii08JX7uw0dO-d4jB14v-155" value="Umidade" style="edgeLabel;html=1;align=center;verticalAlign=middle;resizable=0;points=[];" vertex="1" connectable="0" parent="ii08JX7uw0dO-d4jB14v-154">
          <mxGeometry x="-0.9046" y="2" relative="1" as="geometry">
            <mxPoint x="17" y="2" as="offset" />
          </mxGeometry>
        </mxCell>
        <mxCell id="ii08JX7uw0dO-d4jB14v-160" style="edgeStyle=orthogonalEdgeStyle;rounded=0;orthogonalLoop=1;jettySize=auto;html=1;entryX=-0.06;entryY=0.334;entryDx=0;entryDy=0;entryPerimeter=0;endArrow=classic;endFill=1;strokeWidth=1;" edge="1" parent="1" target="ii08JX7uw0dO-d4jB14v-127">
          <mxGeometry relative="1" as="geometry">
            <mxPoint x="-1470" y="1153" as="sourcePoint" />
            <Array as="points">
              <mxPoint x="-1005" y="1155" />
              <mxPoint x="-1005" y="1153" />
            </Array>
          </mxGeometry>
        </mxCell>
        <mxCell id="ii08JX7uw0dO-d4jB14v-162" value="&lt;p style=&quot;margin: 0px ; margin-top: 4px ; margin-left: 10px ; text-align: left&quot;&gt;&lt;b&gt;act&lt;/b&gt; [activity] ACActityContext [AC basic act Description]&lt;/p&gt;" style="html=1;strokeWidth=1;shape=mxgraph.sysml.package;html=1;overflow=fill;whiteSpace=wrap;fillColor=none;gradientColor=none;fontSize=12;align=center;labelX=327.64;" vertex="1" parent="1">
          <mxGeometry x="-1730" y="60" width="1700" height="1160" as="geometry" />
        </mxCell>
      </root>
    </mxGraphModel>
  </diagram>
</mxfile>
